<svg xmlns="http://www.w3.org/2000/svg" width="20" height="20" viewBox="0 0 20 20">
  <g fill="#243348" fill-rule="evenodd">
    <path d="M14.3846154,0.169538462 L5.66092308,0.169538462 C2.61538462,0.169538462 0.146769231,2.63815385 0.146769231,5.66092308 L0.146769231,14.3846154 C0.146769231,17.4073846 2.61538462,19.8775385 5.63938462,19.8775385 L14.3846154,19.8775385 C17.4073846,19.8775385 19.8775385,17.4086154 19.8775385,14.3846154 L19.8775385,5.66092308 C19.8775385,2.63815385 17.4073846,0.169538462 14.3846154,0.169538462 Z M18.2621538,14.3846154 C18.2621538,16.5313846 16.5083077,18.2621538 14.3846154,18.2621538 L5.66092308,18.2621538 C3.51446154,18.2621538 1.78369231,16.5083077 1.78369231,14.3846154 L1.78369231,5.66092308 C1.78369231,3.51446154 3.53723077,1.78369231 5.66092308,1.78369231 L14.3846154,1.78369231 C16.5313846,1.78369231 18.2621538,3.53723077 18.2621538,5.66092308 L18.2621538,14.3846154 Z"/>
    <path d="M10.0227692 4.92307692C7.208 4.92307692 4.92307692 7.23076923 4.92307692 10.0227692 4.92307692 12.8378462 7.208 15.1224615 10.0227692 15.1224615 12.8378462 15.1224615 15.1224615 12.8378462 15.1224615 10.0227692 15.1224615 7.23076923 12.8390769 4.92307692 10.0227692 4.92307692zM10.0227692 13.5070769C8.10707692 13.5070769 6.53846154 11.9375385 6.53846154 10.0227692 6.53846154 8.10707692 8.10830769 6.53846154 10.0227692 6.53846154 11.9387692 6.53846154 13.5070769 8.10830769 13.5070769 10.0227692 13.5070769 11.9387692 11.9387692 13.5070769 10.0227692 13.5070769zM16.5769231 4.83046154C16.5769231 6.584 13.9458462 6.584 13.9458462 4.83046154 13.9458462 3.07692308 16.5769231 3.07692308 16.5769231 4.83046154"/>
  </g>
</svg>
